<svg width="30" height="30" viewBox="0 0 30 30" fill="none" xmlns="http://www.w3.org/2000/svg">
<path d="M14.4212 27.9662C5.95928 20.5618 0 16.6397 0 10.4013C0 5.68371 3.36328 1.81641 7.96875 1.81641C11.1647 1.81641 13.5362 3.77912 15 6.56338C16.4637 3.7793 18.8352 1.81641 22.0312 1.81641C26.6372 1.81641 30 5.68447 30 10.4013C30 16.639 24.0485 20.555 15.5788 27.9661C15.2473 28.2561 14.7526 28.2561 14.4212 27.9662Z" fill="#D80000"/>
<path d="M22.0312 1.81641C18.8353 1.81641 16.4638 3.77912 15 6.56338C13.5363 3.7793 11.1648 1.81641 7.96875 1.81641C3.36275 1.81641 0 5.68447 0 10.4013C0 16.639 5.95148 20.555 14.4212 27.9661C14.7527 28.2561 15.2473 28.256 15.5788 27.9661C24.0407 20.5618 30 16.6397 30 10.4013C30 5.68371 26.6367 1.81641 22.0312 1.81641ZM15 26.1387C7.19988 19.3632 1.75781 15.5994 1.75781 10.4013C1.75781 6.50924 4.42793 3.57422 7.96875 3.57422C11.382 3.57422 13.4971 6.73518 14.1529 9.0818C14.3893 9.93785 15.6077 9.94166 15.8471 9.0818C16.4942 6.76629 18.5848 3.57422 22.0312 3.57422C25.5721 3.57422 28.2422 6.50924 28.2422 10.4013C28.2422 15.6023 22.7912 19.371 15 26.1387Z" fill="black"/>
</svg>
